<?xml version="1.0" encoding="iso-8859-1"?>
<!-- Generator: Adobe Illustrator 19.0.0, SVG Export Plug-In . SVG Version: 6.00 Build 0)  -->
<svg version="1.1" id="Layer_1" xmlns="http://www.w3.org/2000/svg" xmlns:xlink="http://www.w3.org/1999/xlink" x="0px" y="0px"
	 viewBox="0 0 512 512" style="enable-background:new 0 0 512 512;" xml:space="preserve">
<ellipse style="fill:#A7A9AC;" cx="69.783" cy="336.614" rx="21.564" ry="28.486"/>
<path id="SVGCleanerId_0" style="fill:#939598;" d="M50.579,349.573c3.57,9.217,10.827,15.531,19.203,15.531
	c8.377,0,15.632-6.314,19.203-15.531H50.579z"/>
<path id="SVGCleanerId_1" style="fill:#939598;" d="M48.771,343.012h42.023c0.298-1.714,0.48-3.485,0.532-5.302H48.239
	C48.291,339.527,48.473,341.299,48.771,343.012z"/>
<polyline style="fill:#F5BA3D;" points="420.822,254.933 420.822,418.302 69.783,418.302 69.783,254.933 420.822,254.933 "/>
<rect x="69.783" y="254.938" style="fill:#F47D20;" width="351.043" height="14.483"/>
<path style="fill:#49C158;" d="M420.822,254.933H193.454v163.369h227.368c34.151,0,61.836-36.571,61.836-81.685
	S454.973,254.933,420.822,254.933"/>
<path style="fill:#00AF64;" d="M482.403,343.859c0.159-2.388,0.256-4.799,0.256-7.241c0-45.113-27.685-81.685-61.836-81.685H193.454
	v14.483h227.368C453.124,269.417,479.626,302.141,482.403,343.859z"/>
<circle cx="276.215" cy="285.144" r="8.088"/>
<circle cx="314.389" cy="285.144" r="8.088"/>
<circle cx="352.564" cy="285.144" r="8.088"/>
<circle cx="390.738" cy="285.144" r="8.088"/>
<circle cx="428.912" cy="285.144" r="8.088"/>
<circle cx="296.704" cy="314.26" r="8.088"/>
<circle cx="334.878" cy="314.26" r="8.088"/>
<circle cx="373.053" cy="314.26" r="8.088"/>
<circle cx="411.227" cy="314.26" r="8.088"/>
<circle cx="449.401" cy="314.26" r="8.088"/>
<circle cx="278.447" cy="343.009" r="8.088"/>
<circle cx="316.621" cy="343.009" r="8.088"/>
<circle cx="354.796" cy="343.009" r="8.088"/>
<circle cx="392.97" cy="343.009" r="8.088"/>
<circle cx="431.145" cy="343.009" r="8.088"/>
<path style="fill:#E44F50;" d="M380.099,254.933c34.151,0,61.836-36.571,61.836-81.685s-27.685-81.684-61.836-81.684H143.982
	v163.369h236.116"/>
<circle cx="296.704" cy="371.047" r="8.088"/>
<circle cx="334.878" cy="371.047" r="8.088"/>
<circle cx="373.053" cy="371.047" r="8.088"/>
<circle cx="411.227" cy="371.047" r="8.088"/>
<circle cx="449.401" cy="371.047" r="8.088"/>
<circle cx="278.447" cy="396.216" r="8.088"/>
<circle cx="316.621" cy="396.216" r="8.088"/>
<circle cx="354.796" cy="396.216" r="8.088"/>
<circle cx="392.97" cy="396.216" r="8.088"/>
<circle cx="431.145" cy="396.216" r="8.088"/>
<ellipse style="fill:#F47D20;" cx="69.783" cy="336.614" rx="61.834" ry="81.687"/>
<ellipse style="fill:#00AF64;" cx="193.449" cy="336.614" rx="61.834" ry="81.687"/>
<ellipse style="fill:#DD263D;" cx="143.984" cy="173.252" rx="61.834" ry="81.687"/>
<g>
	<ellipse style="fill:#D1D3D4;" cx="143.984" cy="173.252" rx="34.681" ry="45.815"/>
	<ellipse style="fill:#D1D3D4;" cx="69.783" cy="337.714" rx="34.681" ry="45.815"/>
	<ellipse style="fill:#D1D3D4;" cx="193.449" cy="337.714" rx="34.681" ry="45.815"/>
</g>
<g>
	<ellipse style="fill:#A7A9AC;" cx="143.984" cy="173.252" rx="21.564" ry="28.486"/>
	<ellipse style="fill:#A7A9AC;" cx="193.449" cy="336.614" rx="21.564" ry="28.486"/>
</g>
<path d="M376.38,254.934c24.146-14.161,40.976-45.437,40.976-81.685c0-21.31-5.879-41.951-16.555-58.12
	c-2.46-3.728-7.479-4.755-11.205-2.293c-3.727,2.462-4.755,7.479-2.293,11.205c8.949,13.555,13.878,31.03,13.878,49.208
	c0,36.739-19.762,67.273-45.494,72.728c17.554-16.326,29.004-42.834,29.004-72.728c0-20.964-5.71-41.346-16.079-57.393
	c-2.424-3.752-7.43-4.828-11.183-2.404c-3.752,2.424-4.828,7.431-2.404,11.183c8.698,13.462,13.489,30.727,13.489,48.614
	c0,36.739-19.762,67.274-45.494,72.728c17.554-16.326,29.004-42.834,29.004-72.728c0-21.202-5.825-41.761-16.403-57.891
	c-2.45-3.735-7.463-4.777-11.199-2.328c-3.735,2.449-4.777,7.463-2.328,11.199c8.87,13.525,13.755,30.935,13.755,49.021
	c0,36.739-19.762,67.273-45.494,72.728c17.554-16.326,29.004-42.834,29.004-72.728c0-20.427-5.451-40.4-15.348-56.244
	c-2.367-3.788-7.357-4.942-11.144-2.574c-3.788,2.367-4.941,7.357-2.574,11.144c8.313,13.307,12.892,30.239,12.892,47.674
	c0,36.739-19.762,67.274-45.494,72.728c17.554-16.326,29.004-42.834,29.004-72.728c0-20.427-5.451-40.4-15.348-56.244
	c-2.367-3.788-7.358-4.942-11.144-2.574c-3.788,2.367-4.941,7.357-2.574,11.144c8.313,13.307,12.892,30.239,12.892,47.674
	c0,36.739-19.762,67.274-45.494,72.728c17.554-16.326,29.004-42.834,29.004-72.728c0-19.583-4.792-38.179-13.86-53.775
	c-2.246-3.863-7.196-5.173-11.057-2.927c-3.862,2.245-5.172,7.195-2.927,11.057c7.634,13.13,11.669,28.914,11.669,45.645
	c0,40.581-24.111,73.597-53.748,73.597c-4.467,0-8.088,3.62-8.088,8.088l0,0H376.38V254.934z"/>
<ellipse style="fill:#A7A9AC;" cx="69.783" cy="336.614" rx="21.564" ry="28.486"/>
<path style="fill:#F7575F;" d="M441.935,254.933c34.151,0,61.836-36.571,61.836-81.685H267.655
	c0,45.113-27.685,81.685-61.836,81.685H441.935z"/>
<path d="M472.31,189.668c-4.345-1.024-8.702,1.67-9.726,6.019c-6.215,26.393-23.144,45.809-42.741,50.212
	c11.319-10.53,20.185-25.392,24.968-43.127c1.164-4.312-1.39-8.751-5.704-9.915c-4.312-1.164-8.752,1.391-9.915,5.704
	c-6.768,25.095-22.966,43.027-41.787,47.3c11.93-11.168,21.057-27.215,25.59-46.466c1.023-4.348-1.67-8.702-6.019-9.726
	c-4.346-1.024-8.703,1.67-9.726,6.019c-6.188,26.28-23,45.641-42.49,50.153c11.919-11.167,21.039-27.206,25.568-46.447
	c1.023-4.348-1.67-8.702-6.02-9.726c-4.344-1.024-8.702,1.67-9.726,6.019c-6.208,26.364-23.107,45.769-42.678,50.2
	c11.472-10.692,20.404-25.853,25.129-43.965c1.128-4.322-1.461-8.74-5.783-9.867c-4.321-1.129-8.739,1.462-9.867,5.783
	c-6.674,25.577-23.021,43.827-42.125,48.065c11.59-10.806,20.575-26.187,25.263-44.578c1.103-4.329-1.511-8.732-5.84-9.835
	c-4.326-1.104-8.732,1.511-9.835,5.84c-7.549,29.616-27.956,49.516-50.781,49.516c-4.467,0-8.088,3.62-8.088,8.088l0,0h200.644
	c17.81-10.405,31.737-30.198,37.703-55.541C479.352,195.045,476.658,190.691,472.31,189.668z"/>
<g>
	<path style="fill:#939598;" d="M174.251,349.573c3.57,9.217,10.827,15.531,19.203,15.531c8.377,0,15.632-6.314,19.203-15.531
		H174.251z"/>
	<path style="fill:#939598;" d="M172.443,343.012h42.023c0.298-1.714,0.48-3.485,0.532-5.302h-43.086
		C171.963,339.527,172.145,341.299,172.443,343.012z"/>
</g>
<g>
	<path id="SVGCleanerId_0_1_" style="fill:#939598;" d="M50.579,349.573c3.57,9.217,10.827,15.531,19.203,15.531
		c8.377,0,15.632-6.314,19.203-15.531H50.579z"/>
</g>
<g>
	<path id="SVGCleanerId_1_1_" style="fill:#939598;" d="M48.771,343.012h42.023c0.298-1.714,0.48-3.485,0.532-5.302H48.239
		C48.291,339.527,48.473,341.299,48.771,343.012z"/>
</g>
<g>
	<path style="fill:#939598;" d="M124.78,186.204c3.57,9.217,10.827,15.531,19.203,15.531c8.377,0,15.632-6.314,19.203-15.531
		L124.78,186.204L124.78,186.204z"/>
	<path style="fill:#939598;" d="M122.971,179.644h42.023c0.298-1.714,0.48-3.485,0.532-5.302H122.44
		C122.491,176.159,122.674,177.93,122.971,179.644z"/>
</g>
<path d="M144.124,210.889c-16.35,0-29.652-16.406-29.652-36.574s13.302-36.574,29.652-36.574s29.652,16.406,29.652,36.574
	S160.475,210.889,144.124,210.889z M144.124,153.917c-7.305,0-13.476,9.341-13.476,20.399c0,11.058,6.172,20.399,13.476,20.399
	s13.476-9.341,13.476-20.399C157.6,163.258,151.428,153.917,144.124,153.917z"/>
<path d="M193.595,374.258c-16.35,0-29.652-16.407-29.652-36.574s13.302-36.573,29.652-36.573s29.652,16.406,29.652,36.573
	S209.945,374.258,193.595,374.258z M193.595,317.287c-7.305,0-13.476,9.341-13.476,20.397c0,11.058,6.172,20.398,13.476,20.398
	s13.476-9.341,13.476-20.399C207.072,326.628,200.9,317.287,193.595,317.287z"/>
<path d="M69.924,374.258c-16.35,0-29.652-16.407-29.652-36.574s13.302-36.573,29.652-36.573s29.652,16.406,29.652,36.573
	S86.273,374.258,69.924,374.258z M69.924,317.287c-7.305,0-13.476,9.341-13.476,20.397c0,11.058,6.172,20.398,13.476,20.398
	c7.305,0,13.476-9.341,13.476-20.399C83.399,326.628,77.229,317.287,69.924,317.287z"/>
<path d="M458.107,261.679C488.959,252.348,512,216.734,512,174.316c0-4.467-3.621-8.088-8.088-8.088h-54.046
	c-3.197-45.723-33.195-81.685-69.626-81.685H144.124c-38.556,0-69.924,40.272-69.924,89.772c0,30.43,11.864,57.353,29.955,73.597
	H69.924C31.368,247.912,0,288.184,0,337.684s31.368,89.772,69.924,89.772h351.04c38.556,0,69.924-40.272,69.924-89.772
	C490.887,305.696,477.779,277.582,458.107,261.679z M442.076,247.912h-21.112H245.96c16.459-14.79,27.751-38.438,29.642-65.509
	h219.9C492.553,219.195,469.718,247.912,442.076,247.912z M380.24,100.719c27.64,0,50.466,28.72,53.416,65.509h-165.86
	c-4.467,0-8.088,3.621-8.088,8.088c0,40.581-24.111,73.597-53.748,73.597h-21.867c18.091-16.244,29.955-43.167,29.955-73.597
	s-11.864-57.353-29.955-73.597H380.24z M193.595,411.281c-29.637,0-53.748-33.015-53.748-73.597s24.111-73.597,53.748-73.597
	s53.748,33.016,53.748,73.597S223.232,411.281,193.595,411.281z M90.376,174.315c0-40.581,24.111-73.597,53.748-73.597
	s53.748,33.015,53.748,73.597s-24.111,73.597-53.748,73.597S90.376,214.897,90.376,174.315z M144.091,264.087
	c0.011,0,0.022,0.001,0.032,0.001s0.022-0.001,0.032-0.001h9.47c-9.111,8.181-16.638,19.066-21.867,31.753
	c-5.23-12.687-12.757-23.572-21.867-31.753H144.091L144.091,264.087z M16.176,337.684c0-40.581,24.111-73.597,53.748-73.597
	s53.748,33.016,53.748,73.597s-24.111,73.597-53.748,73.597S16.176,378.265,16.176,337.684z M109.893,411.281
	c9.111-8.181,16.637-19.066,21.867-31.753c5.229,12.686,12.756,23.572,21.867,31.753H109.893z M420.964,411.281h-187.4
	c18.091-16.244,29.955-43.167,29.955-73.597c0-30.431-11.864-57.354-29.955-73.597h187.4c29.637,0,53.748,33.016,53.748,73.597
	S450.601,411.281,420.964,411.281z"/>
<g>
</g>
<g>
</g>
<g>
</g>
<g>
</g>
<g>
</g>
<g>
</g>
<g>
</g>
<g>
</g>
<g>
</g>
<g>
</g>
<g>
</g>
<g>
</g>
<g>
</g>
<g>
</g>
<g>
</g>
</svg>
