<?xml version="1.0" encoding="iso-8859-1"?>
<!-- Generator: Adobe Illustrator 19.0.0, SVG Export Plug-In . SVG Version: 6.00 Build 0)  -->
<svg version="1.1" id="Layer_1" xmlns="http://www.w3.org/2000/svg" xmlns:xlink="http://www.w3.org/1999/xlink" x="0px" y="0px"
	 viewBox="0 0 512 512" style="enable-background:new 0 0 512 512;" xml:space="preserve">
<g>
	<g>
		<path d="M398.559,281.437V162.149H512L384.637,30.981l-128.219,91.585l-39.592-44.443H0.292l194.807,202.04v41.661H0v145.153
			l99.881-54.813l112.831,68.855l185.919-198.816l-0.682-0.766H398.559z M398.559,88.936l41.336,43.213h-41.336V88.936z M30,416.294
			V369.52l40.356,24.628L30,416.294z M195.099,435.128L58.594,351.825h136.505V435.128z M195.099,236.943L70.892,108.124h124.207
			V236.943z M225.099,423.853V132.511l132.918,149.203L225.099,423.853z M368.559,248.448l-92.07-103.351l92.07-65.764V248.448z"/>
	</g>
</g>
<g>
</g>
<g>
</g>
<g>
</g>
<g>
</g>
<g>
</g>
<g>
</g>
<g>
</g>
<g>
</g>
<g>
</g>
<g>
</g>
<g>
</g>
<g>
</g>
<g>
</g>
<g>
</g>
<g>
</g>
</svg>
